<svg width="486" height="477" viewBox="0 0 486 477" fill="none" xmlns="http://www.w3.org/2000/svg">
<g clip-path="url(#clip0_2967_1705)">
<path fill-rule="evenodd" clip-rule="evenodd" d="M242.276 0C108.304 0 0 109.102 0 244.076C0 351.968 69.3938 443.296 165.662 475.62C177.697 478.05 182.106 470.369 182.106 463.907C182.106 458.248 181.709 438.853 181.709 418.644C114.314 433.195 100.28 389.549 100.28 389.549C89.4488 361.262 73.4009 353.991 73.4009 353.991C51.3424 339.04 75.0077 339.04 75.0077 339.04C99.4763 340.656 112.316 364.093 112.316 364.093C133.972 401.267 168.87 390.764 182.91 384.297C184.913 368.537 191.335 357.627 198.154 351.566C144.402 345.908 87.847 324.896 87.847 231.143C87.847 204.472 97.4678 182.652 112.712 165.681C110.307 159.621 101.881 134.562 115.122 101.024C115.122 101.024 135.579 94.5568 181.704 126.077C201.452 120.735 221.818 118.017 242.276 117.994C262.733 117.994 283.586 120.826 302.842 126.077C348.973 94.5568 369.429 101.024 369.429 101.024C382.67 134.562 374.24 159.621 371.835 165.681C387.481 182.652 396.705 204.472 396.705 231.143C396.705 324.896 340.15 345.501 285.996 351.566C294.823 359.243 302.441 373.789 302.441 396.824C302.441 429.555 302.044 455.823 302.044 463.902C302.044 470.369 306.458 478.05 318.489 475.625C414.756 443.291 484.15 351.968 484.15 244.076C484.547 109.102 375.847 0 242.276 0Z" fill="black"/>
</g>
<defs>
<clipPath id="clip0_2967_1705">
<rect width="486" height="476.082" fill="white"/>
</clipPath>
</defs>
</svg>
